HIERARCHY
ROOT Hips
{
	OFFSET -0.179506 -22.333345 2.821913
	CHANNELS 6 Xposition Yposition Zposition Zrotation Yrotation Xrotation 
	JOINT LeftUpLeg
	{
		OFFSET 6.951974 -9.140623 -0.681533
		CHANNELS 3 Zrotation Yrotation Xrotation
		JOINT LeftLeg
		{
			OFFSET 3.427654 -37.519855 -0.449580
			CHANNELS 3 Zrotation Yrotation Xrotation
			JOINT LeftFoot
			{
				OFFSET -1.359570 -39.796059 -4.369333
				CHANNELS 3 Zrotation Yrotation Xrotation
				JOINT LeftToe
				{
					OFFSET 2.635814 -5.579078 11.928840
					CHANNELS 3 Zrotation Yrotation Xrotation
					End Site
					{
						OFFSET 0.000000 0.000000 0.000000
					}
				}
			}
		}
	}
	JOINT RightUpLeg
	{
		OFFSET -6.767048 -9.052170 -0.431982
		CHANNELS 3 Zrotation Yrotation Xrotation
		JOINT RightLeg
		{
			OFFSET -3.829005 -38.256897 -0.885003
			CHANNELS 3 Zrotation Yrotation Xrotation
			JOINT RightFoot
			{
				OFFSET 1.577377 -39.841461 -4.231180
				CHANNELS 3 Zrotation Yrotation Xrotation
				JOINT RightToe
				{
					OFFSET -2.537174 -4.814398 12.334795
					CHANNELS 3 Zrotation Yrotation Xrotation
					End Site
					{
						OFFSET 0.000000 0.000000 0.000000
					}
				}
			}
		}
	}
	JOINT Spine
	{
		OFFSET -0.253288 10.896323 -2.669631
		CHANNELS 3 Zrotation Yrotation Xrotation
		JOINT Spine1
		{
			OFFSET 0.548704 13.518043 0.109247
			CHANNELS 3 Zrotation Yrotation Xrotation
			JOINT Spine2
			{
				OFFSET 0.145701 5.292222 2.542457
				CHANNELS 3 Zrotation Yrotation Xrotation
				JOINT Neck
				{
					OFFSET -0.277840 21.387037 -4.285703
					CHANNELS 3 Zrotation Yrotation Xrotation
					JOINT Head
					{
						OFFSET 0.515184 6.496960 5.134897
						CHANNELS 3 Zrotation Yrotation Xrotation
						End Site
						{
							OFFSET 0.000000 0.000000 0.000000
						}
					}
				}
				JOINT LeftShoulder
				{
					OFFSET 7.884473 12.174932 -3.408961
					CHANNELS 3 Zrotation Yrotation Xrotation
					JOINT LeftArm
					{
						OFFSET 9.097692 3.046888 -0.886815
						CHANNELS 3 Zrotation Yrotation Xrotation
						JOINT LeftForeArm
						{
							OFFSET 25.961220 -1.277207 -2.745643
							CHANNELS 3 Zrotation Yrotation Xrotation
							JOINT LeftHand
							{
								OFFSET 24.923361 0.898606 -0.117091
								CHANNELS 3 Zrotation Yrotation Xrotation
								End Site
								{
									OFFSET 0.000000 0.000000 0.000000
								}
							}
						}
					}
				}
				JOINT RightShoulder
				{
					OFFSET -8.175920 11.883285 -3.861528
					CHANNELS 3 Zrotation Yrotation Xrotation
					JOINT RightArm
					{
						OFFSET -9.601238 3.255117 -0.914307
						CHANNELS 3 Zrotation Yrotation Xrotation
						JOINT RightForeArm
						{
							OFFSET -25.374195 -1.332924 -2.140099
							CHANNELS 3 Zrotation Yrotation Xrotation
							JOINT RightHand
							{
								OFFSET -25.529810 0.777228 -0.555919
								CHANNELS 3 Zrotation Yrotation Xrotation
								End Site
								{
									OFFSET 0.000000 0.000000 0.000000
								}
							}
						}
					}
				}
			}
		}
	}
}
MOTION
Frames: 13
Frame Time: 0.033333
4.726423 -51.409622 88.594711 -122.390671 -2.253803 87.073444 13.673514 12.709164 4.655535 -4.502504 -0.113105 17.740836 -2.691614 18.994157 -19.633181 nan nan nan -13.010111 -10.041591 -17.134071 7.089992 -5.028485 30.697836 1.125464 -10.984891 -15.803746 nan nan nan 1.441095 -3.310025 13.360955 5.812067 -5.331574 0.741700 2.483394 -2.538894 5.647434 2.975252 -25.713270 15.119547 7.891608 -20.971155 -12.386494 -4.297685 9.839698 -3.806642 -25.921420 -13.142148 -18.909422 40.602723 -18.829944 -76.441019 14.726196 -9.096270 -61.219179 -1.575198 -9.375107 -16.266697 23.747078 -2.357659 -23.394413 -42.470156 25.898306 -77.872022 -6.889063 5.112742 -54.782026 
4.737655 -51.384708 88.584076 -122.301800 -2.253050 87.093001 13.714773 12.763752 4.683057 -4.481470 -0.160840 17.595908 -2.747173 18.872402 -19.555432 nan nan nan -12.978327 -10.079920 -17.137844 7.026779 -5.101615 30.711069 1.150090 -10.988258 -15.827296 nan nan nan 1.503987 -3.328367 13.356091 5.836740 -5.363005 0.634030 2.469634 -2.565306 5.683136 2.961800 -25.595583 15.124626 7.867899 -21.102963 -12.377408 -4.187554 9.809892 -3.861050 -26.132994 -13.263358 -18.857630 40.668837 -18.752371 -76.514451 14.574855 -9.283058 -60.963250 -1.609685 -9.314369 -16.254370 23.669799 -2.410626 -23.329510 -42.442184 25.803391 -77.736967 -6.619423 5.277801 -54.831449 
4.667768 -51.300812 88.559929 -122.420658 -2.286062 87.078510 13.796175 12.843276 5.067528 -4.578409 -0.179138 17.148736 -2.828914 18.898467 -19.539960 nan nan nan -12.944619 -10.089822 -17.144894 6.983848 -5.022679 30.826352 1.188290 -10.941475 -15.914101 nan nan nan 1.465164 -3.445103 13.225705 5.826545 -5.228939 0.789561 2.495823 -2.508953 5.571446 2.745956 -25.461591 15.396213 8.006813 -21.115590 -12.554403 -4.283567 9.693429 -3.884852 -26.117049 -13.104920 -18.843362 40.717083 -18.928035 -76.672199 14.518781 -9.411882 -60.498101 -1.486435 -9.141893 -16.053882 23.154763 -2.846451 -23.402320 -42.036693 26.149039 -77.679691 -6.263363 5.565015 -54.777476 
4.671913 -51.281727 88.553825 -122.308178 -2.348866 87.073669 13.765222 12.805810 5.116710 -4.644923 -0.279016 17.013729 -2.809324 18.963132 -19.543700 nan nan nan -12.991267 -10.139624 -17.166010 6.964764 -4.994340 30.926970 1.182235 -11.028830 -15.977147 nan nan nan 1.408494 -3.474027 13.202895 5.838379 -5.255863 0.821868 2.499161 -2.489596 5.569501 2.717421 -25.543046 15.327175 8.067754 -21.054705 -12.470911 -4.319250 9.600542 -3.915298 -26.019589 -13.212053 -18.902548 40.799156 -18.913136 -76.486376 14.685833 -9.239751 -60.555784 -1.388122 -9.097179 -16.047556 23.023612 -2.827755 -23.542060 -41.986993 26.150988 -77.603371 -6.381770 5.446487 -54.418997 
4.674215 -51.274410 88.554100 -122.275029 -2.359818 87.070408 13.755190 12.798451 5.109580 -4.645168 -0.303829 17.010432 -2.808873 18.962433 -19.534575 nan nan nan -13.004220 -10.149812 -17.164925 6.963707 -5.003911 30.939283 1.180829 -11.047007 -15.980978 nan nan nan 1.403894 -3.475810 13.203339 5.842312 -5.273226 0.824877 2.502293 -2.486447 5.575911 2.721945 -25.567944 15.298521 8.062019 -21.047643 -12.445027 -4.327028 9.579290 -3.927539 -26.002969 -13.230399 -18.914086 40.803177 -18.899961 -76.437801 14.695979 -9.227512 -60.586725 -1.382255 -9.081753 -16.051890 23.013299 -2.832792 -23.552087 -41.971526 26.132043 -77.544288 -6.382658 5.447870 -54.360844 
4.673640 -51.261787 88.555305 -122.263003 -2.365459 87.069008 13.752870 12.795851 5.108990 -4.645620 -0.312926 17.008994 -2.810154 18.960380 -19.533355 nan nan nan -13.007703 -10.153818 -17.164754 6.963428 -5.008846 30.943256 1.180065 -11.052237 -15.981229 nan nan nan 1.405151 -3.477061 13.203983 5.844021 -5.277126 0.825738 2.503996 -2.485425 5.579815 2.722068 -25.574208 15.293040 8.060991 -21.044237 -12.439799 -4.329321 9.570336 -3.929556 -25.998777 -13.233468 -18.915473 40.805728 -18.899265 -76.426971 14.697419 -9.227095 -60.594639 -1.383686 -9.075621 -16.054596 23.012172 -2.837144 -23.551851 -41.971225 26.129463 -77.530346 -6.379629 5.449854 -54.362038 
4.673681 -51.257118 88.555153 -122.221667 -2.378917 87.060930 13.743999 12.788834 5.112631 -4.645979 -0.347023 16.996318 -2.817441 18.944740 -19.531093 nan nan nan -13.022445 -10.170857 -17.159989 6.957549 -5.026159 30.964733 1.177763 -11.072419 -15.991188 nan nan nan 1.401466 -3.482499 13.207116 5.842866 -5.293388 0.815260 2.503519 -2.488620 5.594356 2.718987 -25.588857 15.278295 8.062641 -21.023264 -12.419905 -4.342740 9.535986 -3.924450 -25.972842 -13.225598 -18.914792 40.803809 -18.927511 -76.384075 14.746703 -9.228307 -60.656547 -1.387725 -9.057829 -16.069529 23.007849 -2.847731 -23.557005 -41.987285 26.137959 -77.554307 -6.438377 5.447453 -54.431599 
4.689604 -51.210621 88.548363 -121.816398 -2.530819 87.015840 13.624571 12.712293 5.078897 -4.549367 -0.458747 16.903838 -2.906541 18.615942 -19.503259 nan nan nan -13.154815 -10.288304 -17.142774 6.777654 -5.253693 31.202553 1.162618 -11.112201 -16.200737 nan nan nan 1.350196 -3.497475 13.249237 5.847270 -5.536262 0.654952 2.471345 -2.529156 5.726520 2.780086 -25.650229 15.016914 8.029146 -20.823718 -12.065161 -4.430807 9.355563 -3.792967 -25.734716 -13.154109 -19.019074 40.670182 -19.546118 -76.053413 15.579260 -9.358854 -61.186367 -1.346128 -8.902643 -16.221094 22.956914 -2.338870 -24.154216 -42.079740 26.440817 -79.071438 -8.308908 5.360294 -53.672297 
4.696178 -51.185852 88.522377 -121.843815 -2.545081 87.027935 13.643444 12.730536 5.144690 -4.569721 -0.480590 16.784573 -2.735582 18.681767 -19.390912 nan nan nan -13.136024 -10.194698 -17.187291 6.809884 -5.102036 31.278221 1.138938 -11.266775 -16.277686 nan nan nan 1.373021 -3.499239 13.576238 5.823972 -5.359509 -0.220646 2.404404 -2.595255 6.159521 3.077738 -25.605419 14.777457 7.822245 -20.976681 -11.742004 -4.211110 9.628054 -3.869203 -25.935164 -13.794210 -18.826301 40.704083 -19.044679 -75.854745 14.448309 -9.638027 -60.594178 -1.378981 -9.328165 -16.065479 23.408042 -2.350873 -23.535808 -42.376047 26.239560 -77.555253 -6.210727 5.149398 -54.263000 
4.697563 -51.185860 88.522682 -121.841212 -2.545944 87.025907 13.641312 12.725201 5.146913 -4.568509 -0.483021 16.780013 -2.733717 18.686684 -19.388519 nan nan nan -13.136328 -10.192144 -17.184894 6.809014 -5.100110 31.277193 1.138238 -11.268786 -16.277825 nan nan nan 1.371158 -3.502187 13.573936 5.824223 -5.358900 -0.211646 2.404614 -2.593826 6.158949 3.079564 -25.607192 14.775457 7.823597 -20.976565 -11.744007 -4.211407 9.628930 -3.872970 -25.938877 -13.805952 -18.823621 40.712161 -19.039416 -75.863429 14.450538 -9.631371 -60.589663 -1.377175 -9.328256 -16.066732 23.411973 -2.343342 -23.530520 -42.381943 26.229289 -77.550842 -6.195795 5.145386 -54.279075 
4.698658 -51.185467 88.523010 -121.838268 -2.546210 87.023792 13.640626 12.722319 5.149673 -4.567664 -0.487419 16.775142 -2.735474 18.689840 -19.388499 nan nan nan -13.135336 -10.190908 -17.182432 6.807802 -5.097828 31.276713 1.137837 -11.270954 -16.279134 nan nan nan 1.370254 -3.503946 13.571955 5.824561 -5.360146 -0.203207 2.406228 -2.590889 6.156328 3.078387 -25.610742 14.776180 7.822515 -20.976464 -11.747417 -4.214197 9.624618 -3.877589 -25.941807 -13.808753 -18.823069 40.719257 -19.045421 -75.871283 14.461532 -9.620355 -60.588698 -1.376381 -9.323287 -16.070508 23.404896 -2.348340 -23.529606 -42.373251 26.229034 -77.542911 -6.189768 5.146984 -54.276798 
4.737680 -51.149818 88.529388 -121.666065 -2.576500 86.948137 13.600859 12.621817 5.282181 -4.520496 -0.696392 16.492509 -2.769620 18.741002 -19.387074 nan nan nan -13.092781 -10.143261 -17.094525 6.702636 -5.044018 31.310643 1.115064 -11.350740 -16.368989 nan nan nan 1.310858 -3.558638 13.363359 5.818091 -5.463531 0.369669 2.469158 -2.456040 5.864435 3.172101 -25.688915 14.871706 7.688875 -20.957767 -11.895154 -4.374237 9.429923 -3.926942 -26.050286 -13.916199 -18.756471 41.108572 -19.582728 -76.474471 15.111880 -9.114214 -60.218495 -1.528018 -9.045962 -16.100319 23.646509 -2.241511 -23.579499 -42.676660 26.091854 -77.727892 -6.694324 5.229765 -54.112590 
4.732794 -51.132633 88.523735 -121.641673 -2.580777 86.949752 13.594336 12.615511 5.273529 -4.511187 -0.699069 16.494477 -2.773438 18.729132 -19.390813 nan nan nan -13.097057 -10.152276 -17.091366 6.696940 -5.051994 31.318401 1.106255 -11.348773 -16.374691 nan nan nan 1.312387 -3.556702 13.356211 5.815642 -5.472206 0.390916 2.468974 -2.461768 5.854159 3.168519 -25.674804 14.868934 7.695333 -20.963677 -11.889928 -4.390335 9.401162 -3.926117 -26.032182 -13.905499 -18.758323 41.105568 -19.608828 -76.513298 15.137110 -9.146617 -60.212992 -1.522446 -9.020279 -16.098750 23.637650 -2.264387 -23.575940 -42.688228 26.107965 -77.769114 -6.721523 5.256267 -54.130625 
